<svg xmlns="http://www.w3.org/2000/svg" width="430" height="430" style="width:100%;height:100%;transform:translate3d(0,0,0);content-visibility:visible" viewBox="0 0 430 430"><defs><mask id="ac" mask-type="alpha"><g filter="url(#a)"><path fill="#fff" d="M0 0h430v430H0z" opacity="0"/><use xmlns:ns1="http://www.w3.org/1999/xlink" ns1:href="#b"/></g></mask><mask id="ab" mask-type="alpha"><g filter="url(#c)"><path fill="#fff" d="M0 0h430v430H0z" opacity="0"/><use xmlns:ns2="http://www.w3.org/1999/xlink" ns2:href="#d"/></g></mask><mask id="aa" mask-type="alpha"><g filter="url(#e)"><path fill="#fff" d="M0 0h430v430H0z" opacity="0"/><use xmlns:ns3="http://www.w3.org/1999/xlink" ns3:href="#f"/></g></mask><mask id="Y" mask-type="alpha"><use xmlns:ns4="http://www.w3.org/1999/xlink" ns4:href="#g"/></mask><mask id="W" mask-type="alpha"><g filter="url(#h)"><path fill="#fff" d="M0 0h430v430H0z" opacity="0"/><use xmlns:ns5="http://www.w3.org/1999/xlink" ns5:href="#i"/></g></mask><mask id="V" mask-type="alpha"><g filter="url(#j)"><path fill="#fff" d="M0 0h430v430H0z" opacity="0"/><use xmlns:ns6="http://www.w3.org/1999/xlink" ns6:href="#k"/></g></mask><mask id="U" mask-type="alpha"><g filter="url(#l)"><path fill="#fff" d="M0 0h430v430H0z" opacity="0"/><use xmlns:ns7="http://www.w3.org/1999/xlink" ns7:href="#m"/></g></mask><mask id="S" mask-type="alpha"><use xmlns:ns8="http://www.w3.org/1999/xlink" ns8:href="#n"/></mask><mask id="P" mask-type="alpha"><g filter="url(#o)"><path fill="#fff" d="M0 0h430v430H0z" opacity="0"/><use xmlns:ns9="http://www.w3.org/1999/xlink" ns9:href="#p"/></g></mask><mask id="O" mask-type="alpha"><g filter="url(#q)"><path fill="#fff" d="M0 0h430v430H0z" opacity="0"/><use xmlns:ns10="http://www.w3.org/1999/xlink" ns10:href="#r"/></g></mask><mask id="N" mask-type="alpha"><g filter="url(#s)"><path fill="#fff" d="M0 0h430v430H0z" opacity="0"/><use xmlns:ns11="http://www.w3.org/1999/xlink" ns11:href="#t"/></g></mask><mask id="L" mask-type="alpha"><use xmlns:ns12="http://www.w3.org/1999/xlink" ns12:href="#u"/></mask><mask id="J" mask-type="alpha"><g filter="url(#v)"><path fill="#fff" d="M0 0h430v430H0z" opacity="0"/><use xmlns:ns13="http://www.w3.org/1999/xlink" ns13:href="#w"/></g></mask><mask id="I" mask-type="alpha"><g filter="url(#x)"><path fill="#fff" d="M0 0h430v430H0z" opacity="0"/><use xmlns:ns14="http://www.w3.org/1999/xlink" ns14:href="#y"/></g></mask><mask id="H" mask-type="alpha"><g filter="url(#z)"><path fill="#fff" d="M0 0h430v430H0z" opacity="0"/><use xmlns:ns15="http://www.w3.org/1999/xlink" ns15:href="#A"/></g></mask><mask id="F" mask-type="alpha"><use xmlns:ns16="http://www.w3.org/1999/xlink" ns16:href="#B"/></mask><filter id="a" width="100%" height="100%" x="0%" y="0%" filterUnits="objectBoundingBox"><feComponentTransfer in="SourceGraphic"><feFuncA tableValues="1.0 0.0" type="table"/></feComponentTransfer></filter><filter id="c" width="100%" height="100%" x="0%" y="0%" filterUnits="objectBoundingBox"><feComponentTransfer in="SourceGraphic"><feFuncA tableValues="1.0 0.0" type="table"/></feComponentTransfer></filter><filter id="e" width="100%" height="100%" x="0%" y="0%" filterUnits="objectBoundingBox"><feComponentTransfer in="SourceGraphic"><feFuncA tableValues="1.0 0.0" type="table"/></feComponentTransfer></filter><filter id="h" width="100%" height="100%" x="0%" y="0%" filterUnits="objectBoundingBox"><feComponentTransfer in="SourceGraphic"><feFuncA tableValues="1.0 0.0" type="table"/></feComponentTransfer></filter><filter id="j" width="100%" height="100%" x="0%" y="0%" filterUnits="objectBoundingBox"><feComponentTransfer in="SourceGraphic"><feFuncA tableValues="1.0 0.0" type="table"/></feComponentTransfer></filter><filter id="l" width="100%" height="100%" x="0%" y="0%" filterUnits="objectBoundingBox"><feComponentTransfer in="SourceGraphic"><feFuncA tableValues="1.0 0.0" type="table"/></feComponentTransfer></filter><filter id="o" width="100%" height="100%" x="0%" y="0%" filterUnits="objectBoundingBox"><feComponentTransfer in="SourceGraphic"><feFuncA tableValues="1.0 0.0" type="table"/></feComponentTransfer></filter><filter id="q" width="100%" height="100%" x="0%" y="0%" filterUnits="objectBoundingBox"><feComponentTransfer in="SourceGraphic"><feFuncA tableValues="1.0 0.0" type="table"/></feComponentTransfer></filter><filter id="s" width="100%" height="100%" x="0%" y="0%" filterUnits="objectBoundingBox"><feComponentTransfer in="SourceGraphic"><feFuncA tableValues="1.0 0.0" type="table"/></feComponentTransfer></filter><filter id="v" width="100%" height="100%" x="0%" y="0%" filterUnits="objectBoundingBox"><feComponentTransfer in="SourceGraphic"><feFuncA tableValues="1.0 0.0" type="table"/></feComponentTransfer></filter><filter id="x" width="100%" height="100%" x="0%" y="0%" filterUnits="objectBoundingBox"><feComponentTransfer in="SourceGraphic"><feFuncA tableValues="1.0 0.0" type="table"/></feComponentTransfer></filter><filter id="z" width="100%" height="100%" x="0%" y="0%" filterUnits="objectBoundingBox"><feComponentTransfer in="SourceGraphic"><feFuncA tableValues="1.0 0.0" type="table"/></feComponentTransfer></filter><g id="f" style="display:none"><path/><path fill-opacity="0" stroke-linecap="round" stroke-linejoin="round"/></g><g id="b" style="display:none"><path/><path fill-opacity="0" stroke-linecap="round" stroke-linejoin="round" class="primary"/></g><g id="d" style="display:none"><path/><path fill-opacity="0" stroke-linecap="round" stroke-linejoin="round" class="primary"/></g><g id="m" style="display:block"><path fill="#FFF" d="m149.495 162.905 35.532 44.462 48.66 25.94c23.64 3.363 25.972-17.72 25.972-17.72l-54.858-29.181-32.33-40.901"/><path fill-opacity="0" stroke="#08A88A" stroke-linecap="round" stroke-linejoin="round" stroke-width="0" d="m149.495 162.905 35.532 44.462 48.66 25.94c23.64 3.363 25.972-17.72 25.972-17.72l-54.858-29.181-32.33-40.901"/></g><g id="i" style="display:block"><path fill="red" d="m214.476 225.38 29.162 75.621-2.433 76.746s24.179 9.003 16.371 24.111c-11.567 0-44.727.009-53.479.009-.338-14.242-.324-25.585-.324-25.585l-.116-68.249-52.915-81.281"/><path fill-opacity="0" stroke="#121330" stroke-linecap="round" stroke-linejoin="round" stroke-width="0" d="m214.476 225.38 29.162 75.621-2.433 76.746s24.179 9.003 16.371 24.111c-11.567 0-44.727.009-53.479.009-.338-14.242-.324-25.585-.324-25.585l-.116-68.249-52.915-81.281" class="primary"/></g><g id="k" style="display:block"><path fill="#FFF" d="M324.625 237.123h-82.938v-82.938h82.938v82.938z"/><path fill-opacity="0" stroke="#121330" stroke-linecap="round" stroke-linejoin="round" stroke-width="0" d="M324.625 237.123h-82.938v-82.938h82.938v82.938z" class="primary"/></g><g id="t" style="display:none"><path/><path fill-opacity="0" stroke-linecap="round" stroke-linejoin="round"/></g><g id="p" style="display:none"><path/><path fill-opacity="0" stroke-linecap="round" stroke-linejoin="round" class="primary"/></g><g id="r" style="display:none"><path/><path fill-opacity="0" stroke-linecap="round" stroke-linejoin="round" class="primary"/></g><g id="A" style="display:none"><path/><path fill-opacity="0" stroke-linecap="round" stroke-linejoin="round"/></g><g id="w" style="display:none"><path/><path fill-opacity="0" stroke-linecap="round" stroke-linejoin="round" class="primary"/></g><g id="y" style="display:none"><path/><path fill-opacity="0" stroke-linecap="round" stroke-linejoin="round" class="primary"/></g><clipPath id="C"><path d="M0 0h430v430H0z"/></clipPath><clipPath id="Q"><path d="M0 0h430v430H0z"/></clipPath><clipPath id="X"><path d="M0 0h430v430H0z"/></clipPath><clipPath id="Z"><path d="M0 0h430v430H0z"/></clipPath><clipPath id="R"><path d="M0 0h430v430H0z"/></clipPath><clipPath id="T"><path d="M0 0h430v430H0z"/></clipPath><clipPath id="D"><path d="M0 0h430v430H0z"/></clipPath><clipPath id="K"><path d="M0 0h430v430H0z"/></clipPath><clipPath id="M"><path d="M0 0h430v430H0z"/></clipPath><clipPath id="E"><path d="M0 0h430v430H0z"/></clipPath><clipPath id="G"><path d="M0 0h430v430H0z"/></clipPath><path id="g" class="secondary" style="display:none"/><path id="n" fill="#4EAFFA" d="M1129.031 417.37c-15.906 0-32 13.13-32 31.99v75.71h64v-75.71c0-16.735-15.031-31.99-32-31.99z" class="secondary" style="display:block" transform="scale(-1 1) rotate(2 9038.252 -37201.27)"/><path id="u" class="secondary" style="display:none"/><path id="B" class="secondary" style="display:none"/></defs><g clip-path="url(#C)"><g clip-path="url(#D)" style="display:none"><g clip-path="url(#E)" style="display:none"><g style="display:none"><path class="tertiary"/><path class="tertiary" style="mix-blend-mode:multiply"/></g><path class="quinary" style="display:none"/><path class="tertiary" style="display:none"/><path class="quinary" style="display:none"/><g style="display:none"><path class="secondary"/><path class="secondary" style="mix-blend-mode:multiply"/></g><path class="quaternary" style="display:none"/><path class="secondary" style="display:none"/><g mask="url(#F)" style="mix-blend-mode:multiply;display:none"><path class="secondary"/></g><g style="display:none"><path class="senary"/><path class="quaternary"/><path class="quaternary" style="mix-blend-mode:multiply"/></g><path fill="none" class="primary" style="display:none"/><path class="secondary" style="display:none"/><g clip-path="url(#G)" mask="url(#H)" style="display:none"><g mask="url(#I)" style="display:none"><path fill="none" class="primary"/></g><path fill="none" class="primary" style="display:none"/><g mask="url(#J)" style="display:none"><path fill="none" class="primary"/></g><path fill="none" class="primary" style="display:none"/><path fill="none" class="primary" style="display:none"/><path fill="none" class="primary" style="display:none"/></g><path fill="none" class="primary" style="display:none"/></g><g clip-path="url(#K)" style="display:none"><g style="display:none"><path class="tertiary"/><path class="tertiary" style="mix-blend-mode:multiply"/></g><path class="quinary" style="display:none"/><path class="tertiary" style="display:none"/><path class="quinary" style="display:none"/><g style="display:none"><path class="secondary"/><path class="secondary" style="mix-blend-mode:multiply"/></g><path class="quaternary" style="display:none"/><path class="secondary" style="display:none"/><g mask="url(#L)" style="mix-blend-mode:multiply;display:none"><path class="secondary"/></g><g style="display:none"><path class="senary"/><path class="quaternary"/><path class="quaternary" style="mix-blend-mode:multiply"/></g><path fill="none" class="primary" style="display:none"/><path class="secondary" style="display:none"/><g clip-path="url(#M)" mask="url(#N)" style="display:none"><g mask="url(#O)" style="display:none"><path fill="none" class="primary"/></g><path fill="none" class="primary" style="display:none"/><g mask="url(#P)" style="display:none"><path fill="none" class="primary"/></g><path fill="none" class="primary" style="display:none"/><path fill="none" class="primary" style="display:none"/><path fill="none" class="primary" style="display:none"/></g><path fill="none" class="primary" style="display:none"/></g></g><g clip-path="url(#Q)" style="display:block"><g clip-path="url(#R)" style="display:block"><g fill="#393346" style="display:block"><path d="m150.962 226.743-10.015 64.074-46.179 48.63-17.586 16.872s30.354 33.327 36.271 39.776c15.168-2.726 7.101-30.099 7.101-30.099l55.856-53.683 37.994-87.391" class="tertiary"/><path fill-opacity=".5" d="m130.297 7.743 10.015 64.074 46.179 48.63 17.586 16.872s-30.354 33.327-36.271 39.776c-15.168-2.726-7.101-30.099-7.101-30.099l-55.856-53.683L66.855 5.922" class="tertiary" style="mix-blend-mode:multiply" transform="matrix(-1 0 0 1 281.259 219)"/></g><path fill="#636D78" d="m186.769 120.714 17.308 16.605s-30.354 33.327-36.271 39.776c-15.168-2.726-7.101-30.099-7.101-30.099l-.818-.786" class="quinary" style="display:block" transform="matrix(-1 0 0 1 281.259 219)"/><path fill="#393346" d="M83.533 6.38 54.371 82.001l2.433 76.746s-24.179 9.003-16.371 24.111c11.567 0 44.727.009 53.479.009.338-14.242.324-25.585.324-25.585l.116-68.249 52.915-81.281" class="tertiary" style="display:block" transform="matrix(-1 0 0 1 298.009 219)"/><path fill="#636D78" d="M56.804 158.747s-24.179 9.003-16.371 24.111c11.567 0 44.727.009 53.479.009.246-10.371.306-19.205.32-23.241" class="quinary" style="display:block" transform="matrix(-1 0 0 1 298.009 219)"/><g fill="#4EAFFA" style="display:block"><path d="m202.78 127.293 32 51.465 56.304 26.295s-1.097 23.656-24.883 21.526l-49.936-23.374-1.485-1.569" class="secondary"/><path fill-opacity=".5" d="m-26.653-49.711 32 51.465 56.305 26.295s-1.097 23.656-24.883 21.526l-49.936-23.374-1.485-1.569" class="secondary" style="mix-blend-mode:multiply" transform="translate(229.432 177.004)"/></g><path fill="#AF6836" d="M41.469 41.469h-82.938v-82.938h82.938v82.938z" class="quaternary" style="display:block" transform="translate(283.156 195.654)"/><path fill="#4EAFFA" d="M1129.031 417.37c-15.906 0-32 13.13-32 31.99v75.71h64v-75.71c0-16.735-15.031-31.99-32-31.99z" class="secondary" style="display:block" transform="scale(-1 1) rotate(2 9038.252 -37201.27)"/><g mask="url(#S)" opacity=".5" style="mix-blend-mode:multiply;display:block"><path fill="#4EAFFA" d="m150.495 170.905 35.532 44.462 48.66 25.94c23.64 3.363 25.972-17.72 25.972-17.72l-54.858-29.181-32.33-40.901" class="secondary" opacity="1"/></g><g style="display:block"><path fill="#F7C6BD" d="M207.81 51.892v31.71c0 3.46-2.84 6.3-6.3 6.3h-19.56c-11.58 0-21.05-9.48-21.05-21.06v-16.95c0-11.58 9.47-21.05 21.05-21.05h4.8c9.74 0 18 6.7 20.37 15.72.45 1.71.69 3.49.69 5.33z" class="senary"/><path fill="#AF6836" d="M207.12 46.562c-.02.01-.04.01-.06.01h-17.84c-4.1 0-7.43 3.32-7.43 7.43 0 2.05-.83 3.91-2.18 5.25a7.374 7.374 0 0 1-5.25 2.18h-6.77c-3.65 0-6.61 2.96-6.61 6.6h-.08v-16.14c0-11.58 9.47-21.05 21.05-21.05h4.8c9.74 0 18 6.7 20.37 15.72z" class="quaternary"/><path fill="#AF6836" d="M23.11-2.875c-.02.01-.04.01-.06.01H5.21c-4.1 0-7.43 3.32-7.43 7.43 0 2.05-.83 3.91-2.18 5.25a7.374 7.374 0 0 1-5.25 2.18h-6.77c-3.65 0-6.61 2.96-6.61 6.6h-.08V2.455c0-11.58 9.47-21.05 21.05-21.05h4.8c9.74 0 18 6.7 20.37 15.72z" class="quaternary" opacity=".5" style="mix-blend-mode:multiply" transform="translate(184.01 49.437)"/></g><path fill="none" d="M89.875-128.757h19.25c11.051 0 20.094-9.043 20.094-20.094v-17.552c0-11.579-9.474-21.053-21.053-21.053h-4.516c-11.579 0-21.053 9.474-21.053 21.053v30.368c0 4.003 3.275 7.278 7.278 7.278z" class="primary" style="display:block" transform="scale(-1 1) rotate(-1.611 7713.86 10274.67)"/><path fill="#4EAFFA" d="M-52.332-28.409-16.8 16.053l48.659 25.94c23.641 3.363 25.973-17.72 25.973-17.72L2.974-4.908l-32.331-40.901" class="secondary" style="display:block" transform="translate(201.827 191.314)"/><g clip-path="url(#T)" mask="url(#U)" style="display:block"><g mask="url(#V)" style="display:block"><path fill="none" stroke="#121330" stroke-linecap="round" stroke-linejoin="round" stroke-width="7" d="m202.78 127.293 32 51.465 56.304 26.295s-1.097 23.656-24.883 21.526l-49.936-23.374-1.485-1.569" class="primary"/></g><path fill="none" stroke="#121330" stroke-linecap="round" stroke-linejoin="round" stroke-width="7" d="M41.469 41.469h-82.938v-82.938h82.938v82.938z" class="primary" style="display:block" transform="translate(283.156 195.654)"/><g mask="url(#W)" style="display:block"><path fill="none" stroke="#121330" stroke-linecap="round" stroke-linejoin="round" stroke-width="7" d="m150.962 226.743-10.015 64.074-46.179 48.63-17.586 16.872s30.354 33.327 36.271 39.776c15.168-2.726 7.101-30.099 7.101-30.099l55.856-53.683 37.994-87.391" class="primary"/></g><path fill="none" stroke="#121330" stroke-linecap="round" stroke-linejoin="round" stroke-width="7" d="M83.533 6.38 54.371 82.001l2.433 76.746s-24.179 9.003-16.371 24.111c11.567 0 44.727.009 53.479.009.338-14.242.324-25.585.324-25.585l.116-68.249 52.915-81.281" class="primary" style="display:block" transform="matrix(-1 0 0 1 298.009 219)"/><path fill="none" stroke="#121330" stroke-linecap="round" stroke-linejoin="round" stroke-width="7" d="M1129.031 417.37c-15.906 0-32 13.13-32 31.99v75.71h64v-75.71c0-16.735-15.031-31.99-32-31.99z" class="primary" style="display:block" transform="scale(-1 1) rotate(2 9038.252 -37201.27)"/><path fill="none" stroke="#121330" stroke-linecap="round" stroke-linejoin="round" stroke-width="7" d="M89.875-128.757h19.25c11.051 0 20.094-9.043 20.094-20.094v-17.552c0-11.579-9.474-21.053-21.053-21.053h-4.516c-11.579 0-21.053 9.474-21.053 21.053v30.368c0 4.003 3.275 7.278 7.278 7.278z" class="primary" style="display:block" transform="scale(-1 1) rotate(-1.611 7713.86 10274.67)"/></g><path fill="none" stroke="#121330" stroke-linecap="round" stroke-linejoin="round" stroke-width="7" d="M-52.332-28.409-16.8 16.053l48.659 25.94c23.641 3.363 25.973-17.72 25.973-17.72L2.974-4.908l-32.331-40.901" class="primary" style="display:block" transform="translate(201.827 191.314)"/></g><g clip-path="url(#X)" style="display:none"><g style="display:none"><path class="tertiary"/><path class="tertiary" style="mix-blend-mode:multiply"/></g><path class="quinary" style="display:none"/><path class="tertiary" style="display:none"/><path class="quinary" style="display:none"/><g style="display:none"><path class="secondary"/><path class="secondary" style="mix-blend-mode:multiply"/></g><path class="quaternary" style="display:none"/><path class="secondary" style="display:none"/><g mask="url(#Y)" style="mix-blend-mode:multiply;display:none"><path class="secondary"/></g><g style="display:none"><path class="senary"/><path class="quaternary"/><path class="quaternary" style="mix-blend-mode:multiply"/></g><path fill="none" class="primary" style="display:none"/><path class="secondary" style="display:none"/><g clip-path="url(#Z)" mask="url(#aa)" style="display:none"><g mask="url(#ab)" style="display:none"><path fill="none" class="primary"/></g><path fill="none" class="primary" style="display:none"/><g mask="url(#ac)" style="display:none"><path fill="none" class="primary"/></g><path fill="none" class="primary" style="display:none"/><path fill="none" class="primary" style="display:none"/><path fill="none" class="primary" style="display:none"/></g><path fill="none" class="primary" style="display:none"/></g></g></g></svg>