<svg width="430" height="430" viewBox="0 0 430 430" fill="none" xmlns="http://www.w3.org/2000/svg">
<path d="M344.5 308.65C344.5 308.65 220.2 308.65 153.8 308.65H89.6H43.8V265.25C43.8 223.65 77.5 189.85 119.2 189.85H149.7H150.6H192.5V279.75H251.9C277.1 279.75 297.4 259.35 297.4 234.25V220.05V122.25H317.4L344.1 251.85L344.3 259.05L344.5 308.65Z" fill="#FFC738"/>
<path d="M348.3 122.25H332.8C324.2 122.25 317.3 115.25 317.3 106.75C317.3 98.15 324.3 91.25 332.8 91.25H348.3V122.25Z" fill="#FFC738"/>
<g style="mix-blend-mode:multiply" opacity="0.5">
<path d="M317.3 122.25V234.35C317.3 259.55 296.9 279.85 271.8 279.85H251.8C276.9 279.85 297.3 259.45 297.3 234.35V122.25H317.3Z" fill="#FFC738"/>
</g>
<path d="M317.3 122.25H286.2V91.1504H317.3V122.25Z" fill="#3A3347"/>
<path d="M148.5 161.95H192.4V189.95H148.5V161.95Z" fill="#3A3347"/>
<path d="M387.2 308.651H301.3V301.951C301.3 278.251 320.5 259.051 344.2 259.051C367.9 259.051 387.1 278.251 387.1 301.951V308.651H387.2Z" fill="#FFC738"/>
<path d="M82.7001 308.65C82.7001 325.65 96.5001 339.35 113.5 339.35C130.5 339.35 144.2 325.65 144.3 308.65H82.7001Z" fill="#3A3347"/>
<g style="mix-blend-mode:multiply" opacity="0.5">
<path d="M82.7001 308.65C82.7001 325.65 96.5001 339.35 113.5 339.35C130.5 339.35 144.2 325.65 144.3 308.65H82.7001Z" fill="#3A3347"/>
</g>
<path d="M313.5 308.65C313.5 325.65 327.3 339.35 344.3 339.35C361.3 339.35 375 325.65 375.1 308.65H313.5Z" fill="#3A3347"/>
<g style="mix-blend-mode:multiply" opacity="0.5">
<path d="M313.5 308.65C313.5 325.65 327.3 339.35 344.3 339.35C361.3 339.35 375 325.65 375.1 308.65H313.5Z" fill="#3A3347"/>
</g>
<path d="M96 91.5508H149.6V189.951H42.8V144.751C42.8 115.351 66.6 91.5508 96 91.5508Z" fill="#3A3347"/>
<g style="mix-blend-mode:multiply" opacity="0.5">
<path d="M149.6 91.5508V189.951H42.8V144.751C42.8 142.851 42.9 140.951 43.1 139.051L44.3 132.051C50 108.851 71 91.5508 96 91.5508H149.6Z" fill="#3A3347"/>
</g>
<path d="M99.7001 135.551C99.7001 137.451 98.1001 139.051 96.2001 139.051H43.6001C43.4001 139.051 43.3001 139.051 43.1001 139.051L44.3001 132.051H96.1001C98.1001 132.051 99.7001 133.651 99.7001 135.551Z" fill="#3A3347"/>
<path d="M156.3 308.651H70.5V301.951C70.5 278.251 89.7 259.051 113.4 259.051C137.1 259.051 156.3 278.251 156.3 301.951V308.651Z" fill="#FFC738"/>
<g style="mix-blend-mode:multiply" opacity="0.5">
<path d="M387.2 308.651H301.3V301.951C301.3 278.251 320.5 259.051 344.2 259.051C367.9 259.051 387.1 278.251 387.1 301.951V308.651H387.2Z" fill="#FFC738"/>
</g>
<g style="mix-blend-mode:multiply" opacity="0.5">
<path d="M156.3 308.651H70.5V301.951C70.5 278.251 89.7 259.051 113.4 259.051C137.1 259.051 156.3 278.251 156.3 301.951V308.651Z" fill="#FFC738"/>
</g>
<path d="M348.3 122.25H332.8C324.2 122.25 317.3 115.25 317.3 106.75C317.3 98.15 324.3 91.25 332.8 91.25H348.3V122.25Z" stroke="#121331" stroke-width="7" stroke-linecap="round" stroke-linejoin="round"/>
<path d="M317.3 91.1504H286.2V122.25H317.3V91.1504Z" stroke="#121331" stroke-width="7" stroke-linecap="round" stroke-linejoin="round"/>
<path d="M192.4 161.95H149.5V189.95H192.4V161.95Z" stroke="#121331" stroke-width="7" stroke-linecap="round" stroke-linejoin="round"/>
<path d="M313.7 309.15C313.7 326.15 327.5 339.85 344.5 339.85C361.5 339.85 375.2 326.15 375.3 309.15" stroke="#121331" stroke-width="7" stroke-linecap="round" stroke-linejoin="round"/>
<path d="M387.2 308.651H301.3V301.951C301.3 278.251 320.5 259.051 344.2 259.051C367.9 259.051 387.1 278.251 387.1 301.951V308.651H387.2Z" stroke="#121331" stroke-width="7" stroke-linecap="round" stroke-linejoin="round"/>
<path d="M313.7 309.15C313.7 326.15 327.5 339.85 344.5 339.85C361.5 339.85 375.2 326.15 375.3 309.15" stroke="#121331" stroke-width="7" stroke-linecap="round" stroke-linejoin="round"/>
<path d="M387.2 308.651H301.3V301.951C301.3 278.251 320.5 259.051 344.2 259.051C367.9 259.051 387.1 278.251 387.1 301.951V308.651H387.2Z" stroke="#121331" stroke-width="7" stroke-linecap="round" stroke-linejoin="round"/>
<path d="M82.7 308.65C82.7 325.65 96.4999 339.35 113.5 339.35C130.5 339.35 144.2 325.65 144.3 308.65" stroke="#121331" stroke-width="7" stroke-linecap="round" stroke-linejoin="round"/>
<path d="M156.3 308.651H70.5V301.951C70.5 278.251 89.7 259.051 113.4 259.051C137.1 259.051 156.3 278.251 156.3 301.951V308.651Z" stroke="#121331" stroke-width="7" stroke-linecap="round" stroke-linejoin="round"/>
<path d="M96 91.5508H149.6V189.951H42.8V144.751C42.8 115.351 66.6 91.5508 96 91.5508Z" stroke="#121331" stroke-width="7" stroke-linecap="round" stroke-linejoin="round"/>
<g style="mix-blend-mode:multiply" opacity="0.5">
<path d="M192.4 189.95V204.95H119.2C77.6001 204.95 43.8 238.65 43.8 280.35V265.35C43.8 223.75 77.5 189.95 119.2 189.95H192.4Z" fill="#FFC738"/>
</g>
<path d="M144.2 308.651C210.6 308.651 301.4 308.651 301.4 308.651V303.751M82.7001 308.651C72.2001 308.651 43.8 308.651 43.8 308.651V265.251C43.8 223.651 77.5001 189.851 119.1 189.851H149.6H150.5H192.4V279.751H251.8C276.9 279.751 297.3 259.351 297.3 234.251V220.051V122.851H317.3L344 251.751L344.2 258.951" stroke="#121331" stroke-width="7" stroke-linecap="round" stroke-linejoin="round"/>
</svg>
