<svg width="430" height="430" viewBox="0 0 430 430" fill="none" xmlns="http://www.w3.org/2000/svg">
<path d="M273.2 297.85C275.8 307.25 280.2 319.45 287.9 332.25C300 352.35 314.8 365.05 324.8 372.25H105.1C115.1 364.65 129.5 351.85 141.5 332.25C149.3 319.45 153.9 307.35 156.7 297.85" fill="#3A3347"/>
<g style="mix-blend-mode:multiply" opacity="0.5">
<path d="M175.3 332.25C183.1 319.45 187.7 307.35 190.5 297.85H156.7C153.9 307.35 149.3 319.45 141.5 332.25C129.5 351.85 115.1 364.75 105.1 372.25H139C149 364.75 163.3 351.85 175.3 332.25Z" fill="#3A3347"/>
</g>
<path d="M188.3 135.75V176.95H241.7V135.75" fill="#3A3347"/>
<g style="mix-blend-mode:multiply" opacity="0.5">
<path d="M188.3 135.75V176.95H241.7V135.75" fill="#3A3347"/>
</g>
<path d="M215 324.85C257.195 324.85 291.4 290.644 291.4 248.45C291.4 206.255 257.195 172.05 215 172.05C172.806 172.05 138.6 206.255 138.6 248.45C138.6 290.644 172.806 324.85 215 324.85Z" fill="#EBE6EF"/>
<g style="mix-blend-mode:multiply" opacity="0.5">
<path d="M161.4 248.45C161.4 210.15 189.6 178.45 226.4 172.95C222.7 172.35 218.9 172.05 215 172.05C172.8 172.05 138.6 206.25 138.6 248.45C138.6 290.65 172.8 324.85 215 324.85C218.9 324.85 222.7 324.55 226.4 323.95C189.6 318.45 161.4 286.75 161.4 248.45Z" fill="#EBE6EF"/>
</g>
<path d="M215 251.95C213.1 251.95 211.5 250.35 211.5 248.45V196.45C211.5 194.55 213.1 192.95 215 192.95C216.9 192.95 218.5 194.55 218.5 196.45V248.45C218.5 250.45 216.9 251.95 215 251.95Z" fill="#121331"/>
<path d="M325.8 57.75C325.8 102.05 276.2 137.95 215 137.95C153.8 137.95 104.2 102.05 104.2 57.75H325.8Z" fill="#92140C"/>
<g style="mix-blend-mode:multiply" opacity="0.5">
<path d="M132.1 57.75H104.2C104.2 102.05 153.8 137.95 215 137.95C219.7 137.95 224.4 137.75 228.9 137.35C174.3 132.35 132.1 98.65 132.1 57.75Z" fill="#92140C"/>
</g>
<path d="M273.2 297.85C275.8 307.25 280.2 319.45 287.9 332.25C300 352.35 314.8 365.05 324.8 372.25H105.1C115.1 364.65 129.5 351.85 141.5 332.25C149.3 319.45 153.9 307.35 156.7 297.85" stroke="#121331" stroke-width="7" stroke-miterlimit="10" stroke-linecap="round" stroke-linejoin="round"/>
<path d="M215 324.85C257.195 324.85 291.4 290.644 291.4 248.45C291.4 206.255 257.195 172.05 215 172.05C172.806 172.05 138.6 206.255 138.6 248.45C138.6 290.644 172.806 324.85 215 324.85Z" stroke="#121331" stroke-width="7" stroke-miterlimit="10" stroke-linecap="round" stroke-linejoin="round"/>
<path d="M325.8 57.75C325.8 102.05 276.2 137.95 215 137.95C153.8 137.95 104.2 102.05 104.2 57.75H325.8Z" stroke="#121331" stroke-width="7" stroke-miterlimit="10" stroke-linecap="round" stroke-linejoin="round"/>
<path d="M188.3 176.95V135.75" stroke="#121331" stroke-width="7" stroke-miterlimit="10" stroke-linecap="round" stroke-linejoin="round"/>
<path d="M241.7 176.95V135.75" stroke="#121331" stroke-width="7" stroke-miterlimit="10" stroke-linecap="round" stroke-linejoin="round"/>
<path d="M215 256.65C210.4 256.65 206.6 252.85 206.6 248.25C206.6 243.65 210.4 239.85 215 239.85C219.6 239.85 223.4 243.65 223.4 248.25C223.4 252.85 219.6 256.65 215 256.65ZM215 247.65C214.7 247.65 214.4 247.95 214.4 248.25C214.4 248.55 214.7 248.85 215 248.85C215.3 248.85 215.6 248.55 215.6 248.25C215.6 247.95 215.3 247.65 215 247.65Z" fill="#121331"/>
</svg>
